#!OML:ASF F:\VICON\USERDATA\INSTALL\rory3\rory3.ASF
:FULLY-SPECIFIED
:DEGREES
1251
root 1.8768 17.5989 -6.56861 3.55175 -29.3632 -0.0433013
lowerback 5.44349 3.32468 3.43707
upperback 0.620259 4.62991 0.13726
thorax -2.14479 2.27783 -2.10208
lowerneck -27.8953 -2.48549 -10.067
upperneck 4.86065 -0.295362 3.33605
head 5.78084 -0.0979717 2.63329
rclavicle -1.70955e-014 5.96354e-015
rhumerus 13.7645 5.24599 -48.3693
rradius 50.3273
rwrist 16.2314
rhand -29.096 4.58932
rfingers 7.12502
rthumb -2.44443 -25.3764
lclavicle -1.70955e-014 5.96354e-015
lhumerus -29.0693 23.053 50.8654
lradius 49.7813
lwrist 13.0364
lhand -18.256 30.1035
lfingers 7.12502
lthumb 8.02329 59.9312
rfemur -0.952792 0.785367 23.3715
rtibia 25.5189
rfoot -25.4122 -6.49597
rtoes -5.10116
lfemur -27.0533 -0.625267 -16.4279
ltibia 17.1404
lfoot -7.0335 7.01188
ltoes -11.2772
1252
root 1.91445 17.5984 -6.64352 3.60823 -29.4027 -0.111717
lowerback 5.78018 3.32226 3.52272
upperback 0.702743 4.64458 0.22791
thorax -2.24751 2.28279 -2.07716
lowerneck -27.8649 -2.52993 -10.103
upperneck 4.70288 -0.325173 3.16368
head 5.72539 -0.125605 2.5762
rclavicle 5.25288e-014 1.19271e-014
rhumerus 11.8114 5.67932 -50.0462
rradius 50.1763
rwrist 14.4505
rhand -29.3754 4.53204
rfingers 7.12502
rthumb -2.71425 -25.4304
lclavicle 5.25288e-014 1.19271e-014
lhumerus -29.5975 22.4135 52.4118
lradius 46.9085
lwrist 10.9251
lhand -16.5622 30.0395
lfingers 7.12502
lthumb 9.65778 59.7981
rfemur -1.57942 0.599785 23.3744
rtibia 26.0882
rfoot -25.3077 -6.24018
rtoes -5.41807
lfemur -27.0016 -0.734646 -16.3064
ltibia 16.6455
lfoot -7.39035 7.54672
ltoes -11.3971
1253
root 1.95135 17.5965 -6.71654 3.66658 -29.3769 -0.122297
lowerback 6.09512 3.29132 3.38214
upperback 0.765855 4.61007 0.444354
thorax -2.38918 2.26443 -1.79426
lowerneck -27.8273 -2.56282 -10.2476
upperneck 4.57189 -0.291772 2.88751
head 5.6733 -0.135124 2.50885
rclavicle -1.67973e-014 1.98785e-014
rhumerus 9.75133 6.30273 -51.5419
rradius 50.0685
rwrist 12.4252
rhand -29.4474 4.43311
rfingers 7.12502
rthumb -2.78379 -25.5285
lclavicle -1.67973e-014 1.98785e-014
lhumerus -30.2746 22.2938 53.9739
lradius 44.1177
lwrist 7.82769
lhand -14.0661 29.6404
lfingers 7.12502
lthumb 12.0654 59.2726
rfemur -2.19908 0.347502 23.3294
rtibia 26.6066
rfoot -25.1796 -5.95698
rtoes -5.42922
lfemur -27.0091 -0.795186 -16.281
ltibia 16.2363
lfoot -7.68692 7.94102
ltoes -11.1349
1254
root 1.98704 17.5947 -6.78226 3.82025 -29.28 -0.230378
lowerback 6.33217 3.25581 3.20647
upperback 0.793772 4.56847 0.800623
thorax -2.53787 2.24304 -1.34399
lowerneck -27.827 -2.5929 -10.5116
upperneck 4.55744 -0.204705 2.57499
head 5.66161 -0.127261 2.45468
rclavicle 1.82882e-014 7.95139e-015
rhumerus 7.46917 6.92745 -52.8588
rradius 49.9973
rwrist 10.7404
rhand -29.3911 4.23878
rfingers 7.12502
rthumb -2.72945 -25.7235
lclavicle 1.82882e-014 7.95139e-015
lhumerus -31.1203 22.4592 55.5522
lradius 41.2314
lwrist 3.74687
lhand -12.5913 28.811
lfingers 7.12502
lthumb 13.4872 58.3543
rfemur -2.79074 0.165092 23.3909
rtibia 27.0584
rfoot -25.2147 -5.62672
rtoes -3.96152
lfemur -27.0746 -0.706133 -16.223
ltibia 15.847
lfoot -7.8014 8.06736
ltoes -11.4541
1255
root 2.02106 17.5978 -6.84348 4.01919 -29.146 -0.412294
lowerback 6.52276 3.23955 3.25486
upperback 0.812008 4.56311 1.0315
thorax -2.64084 2.23824 -1.14562
lowerneck -27.8132 -2.61096 -10.6344
upperneck 4.60531 -0.161599 2.3605
head 5.67222 -0.130104 2.40674
rclavicle -5.47652e-014 -1.66979e-014
rhumerus 5.08806 7.14395 -54.4422
rradius 49.6917
rwrist 9.74604
rhand -29.1732 3.8242
rfingers 7.12502
rthumb -2.51899 -26.1407
lclavicle -5.47652e-014 -1.66979e-014
lhumerus -31.823 22.5233 57.02
lradius 38.2563
lwrist -0.730309
lhand -12.2371 28.1003
lfingers 7.12502
lthumb 13.8285 57.6206
rfemur -3.36029 -0.152252 23.5102
rtibia 27.4405
rfoot -25.1333 -5.25832
rtoes -1.827
lfemur -27.1837 -0.822557 -16.0085
ltibia 15.4894
lfoot -7.77525 8.44499
ltoes -11.2261
1256
root 2.05382 17.6055 -6.90769 4.09821 -28.9875 -0.477914
lowerback 6.75118 3.20116 3.24885
upperback 0.922352 4.52073 1.17475
thorax -2.66806 2.21744 -1.00264
lowerneck -27.8968 -2.65758 -10.8446
upperneck 4.63513 -0.144836 2.39417
head 5.6923 -0.124432 2.45224
rclavicle -1.68967e-014 -2.38542e-015
rhumerus 2.92722 7.02227 -56.1358
rradius 49.0719
rwrist 9.35735
rhand -28.7222 3.43994
rfingers 7.12502
rthumb -2.0834 -26.5296
lclavicle -1.68967e-014 -2.38542e-015
lhumerus -32.3835 22.8238 58.3683
lradius 35.3254
lwrist -5.54341
lhand -11.9352 26.75
lfingers 7.12502
lthumb 14.1195 56.2503
rfemur -3.85787 -0.499864 23.5591
rtibia 27.7629
rfoot -24.9613 -5.17326
rtoes -1.78666
lfemur -27.2638 -1.22305 -15.7767
ltibia 15.1731
lfoot -7.68408 9.13687
ltoes -9.30295
1257
root 2.0827 17.6098 -6.9696 4.08232 -28.9057 -0.455338
lowerback 6.96791 3.17446 3.23476
upperback 1.09716 4.48689 1.19087
thorax -2.61177 2.20264 -0.982708
lowerneck -27.858 -2.67592 -10.9332
upperneck 4.42596 -0.16033 2.50083
head 5.6186 -0.118251 2.49883
rclavicle -1.308e-013 -8.74653e-015
rhumerus 0.64776 6.93822 -57.8956
rradius 48.4424
rwrist 8.84957
rhand -28.8181 2.10146
rfingers 7.12502
rthumb -2.17605 -27.8672
lclavicle -1.308e-013 -8.74653e-015
lhumerus -32.8231 22.7974 59.679
lradius 32.5598
lwrist -10.102
lhand -12.2791 25.0477
lfingers 7.12502
lthumb 13.788 54.5708
rfemur -4.25798 -0.604078 23.5566
rtibia 28.0553
rfoot -24.8861 -5.22599
rtoes -2.53675
lfemur -27.2265 -1.28098 -15.75
ltibia 14.8861
lfoot -7.42271 9.51867
ltoes -8.73746
1258
root 2.10815 17.611 -7.02816 4.09831 -28.7842 -0.416491
lowerback 7.14674 3.08485 3.37044
upperback 1.2495 4.37521 1.0371
thorax -2.53569 2.14789 -1.21151
lowerneck -27.8107 -2.62032 -10.6908
upperneck 4.15115 -0.184322 2.53327
head 5.52295 -0.114072 2.46878
rclavicle 7.35503e-014 -7.95139e-016
rhumerus -1.68612 6.67892 -59.9114
rradius 47.6978
rwrist 8.90602
rhand -28.7746 0.769519
rfingers 7.12502
rthumb -2.13399 -29.1996
lclavicle 7.35503e-014 -7.95139e-016
lhumerus -33.3118 22.3987 60.7785
lradius 29.9586
lwrist -14.4046
lhand -12.4155 24.121
lfingers 7.12502
lthumb 13.6566 53.653
rfemur -4.68818 -0.673306 23.5642
rtibia 28.3585
rfoot -24.8193 -5.34263
rtoes -2.90961
lfemur -27.2114 -1.09683 -15.8338
ltibia 14.6598
lfoot -7.05969 9.50566
ltoes -8.68453
1259
root 2.13197 17.6112 -7.08484 4.06223 -28.5967 -0.371847
lowerback 7.47924 2.9865 3.16184
upperback 1.33788 4.24186 1.14511
thorax -2.65857 2.08136 -0.990888
lowerneck -27.8314 -2.541 -10.5799
upperneck 4.05914 -0.0996503 2.37775
head 5.48974 -0.0821744 2.40958
rclavicle 4.07509e-014 1.59028e-015
rhumerus -3.9331 6.30909 -61.5124
rradius 46.7168
rwrist 10.1479
rhand -26.9184 1.64241
rfingers 7.12502
rthumb -0.341281 -28.3371
lclavicle 4.07509e-014 1.59028e-015
lhumerus -34.2403 22.5898 61.8375
lradius 27.4465
lwrist -19.088
lhand -11.6261 23.8505
lfingers 7.12502
lthumb 14.4172 53.3297
rfemur -5.05526 -0.760932 23.5774
rtibia 28.6758
rfoot -24.8137 -5.52588
rtoes -3.0177
lfemur -27.1689 -1.03558 -15.8976
ltibia 14.5646
lfoot -6.69633 9.56749
ltoes -8.08324
1260
root 2.15521 17.6102 -7.13744 3.94672 -28.4151 -0.341866
lowerback 7.5388 2.89955 3.06172
upperback 1.6888 4.10916 1.20151
thorax -2.34499 2.0235 -0.856747
lowerneck -27.979 -2.50876 -10.5283
upperneck 3.82878 -0.0599225 2.35416
head 5.43103 -0.0573723 2.39777
rclavicle -2.38542e-014 0
rhumerus -5.74309 5.39668 -63.1075
rradius 45.4187
rwrist 11.9881
rhand -24.9057 2.04923
rfingers 7.12502
rthumb 1.60262 -27.9245
lclavicle -2.38542e-014 0
lhumerus -34.8719 23.1164 62.8814
lradius 25.3265
lwrist -23.1404
lhand -9.98301 23.9267
lfingers 7.12502
lthumb 16 53.2859
rfemur -5.2899 -0.783339 23.5959
rtibia 28.9897
rfoot -24.9472 -5.65838
rtoes -3.0768
lfemur -27.0539 -0.863495 -16.005
ltibia 14.6148
lfoot -6.32279 9.49367
ltoes -8.19162
1261
root 2.1772 17.6093 -7.18854 3.81179 -28.2311 -0.319074
lowerback 7.72121 2.83019 3.00001
upperback 1.98047 4.00786 1.18463
thorax -2.1513 1.97792 -0.831235
lowerneck -28.0513 -2.48355 -10.4143
upperneck 3.57618 -0.0663602 2.39128
head 5.35791 -0.0478885 2.39116
rclavicle 4.65156e-014 1.35174e-014
rhumerus -7.641 4.27924 -64.7204
rradius 43.9469
rwrist 13.8749
rhand -24.1586 1.16443
rfingers 7.12502
rthumb 2.32415 -28.8027
lclavicle 4.65156e-014 1.35174e-014
lhumerus -35.6051 23.3483 63.844
lradius 23.5828
lwrist -26.5689
lhand -8.15935 23.6487
lfingers 7.12502
lthumb 17.7555 52.8581
rfemur -5.47822 -0.86187 23.6161
rtibia 29.2716
rfoot -25.0494 -5.76819
rtoes -3.38337
lfemur -26.9835 -0.546839 -16.1341
ltibia 14.8724
lfoot -6.03008 9.24919
ltoes -8.48596
